<?xml version="1.0" encoding="iso-8859-1"?>
<!-- Generator: Adobe Illustrator 19.0.0, SVG Export Plug-In . SVG Version: 6.00 Build 0)  -->
<svg version="1.1" id="Layer_1" xmlns="http://www.w3.org/2000/svg" xmlns:xlink="http://www.w3.org/1999/xlink" x="0px" y="0px"
	 viewBox="0 0 512 512" style="enable-background:new 0 0 512 512;" xml:space="preserve">
<g>
	<g>
		<path d="M244.271,173.982l-37.72-20.689c-16.282-8.907-37.549-30.203-46.447-46.471l-20.636-37.744
			c-3.227-5.923-12.964-5.931-16.191-0.008l-20.645,37.73c-8.889,16.268-30.156,37.534-46.429,46.437l-37.729,20.63
			c-2.966,1.618-4.805,4.723-4.805,8.099s1.839,6.482,4.805,8.1l37.729,20.636c16.264,8.894,37.531,30.161,46.438,46.438
			l20.636,37.729c1.614,2.962,4.724,4.801,8.096,4.801s6.482-1.839,8.096-4.801l20.636-37.269
			c8.907-16.268,30.174-39.054,46.447-45.978h-0.009l37.729-21.096c2.966-1.618,4.805-4.954,4.805-8.33
			C249.076,178.821,247.237,175.6,244.271,173.982z M197.689,195.468c0,0,0,0-0.009,0c-19.491,9.232-43.111,33.803-53.767,53.294
			l-12.54,22.68l-12.54-23.042c-10.656-19.5-34.285-43.18-53.776-53.836l-22.917-12.566l22.917-12.547
			c19.5-10.665,43.129-34.297,53.776-53.788l12.54-22.926l12.54,22.916c10.647,19.491,34.267,43.11,53.776,53.784l22.917,13.013
			L197.689,195.468z"/>
	</g>
</g>
<g>
	<g>
		<path d="M493.527,109.245l-37.72-20.631c-16.282-8.907-37.549-30.174-46.447-46.443L388.723,4.442
			c-3.227-5.923-12.964-5.923-16.191,0l-20.645,37.734c-8.889,16.268-30.156,37.535-46.429,46.438l-37.729,20.631
			c-2.966,1.618-4.805,4.724-4.805,8.1c0,3.376,1.839,6.482,4.805,8.1l37.729,20.636c16.264,8.894,37.531,30.161,46.438,46.438
			l20.636,37.729c1.614,2.961,4.724,4.801,8.096,4.801c3.372,0,6.482-1.839,8.096-4.801l20.636-37.269
			c8.907-16.268,30.174-39.054,46.447-45.978h-0.009l37.729-21.096c2.966-1.618,4.805-4.954,4.805-8.33
			C498.332,114.199,496.492,110.864,493.527,109.245z M446.944,130.846c0,0,0,0-0.009,0c-19.491,9.232-43.111,33.803-53.767,53.294
			l-12.54,22.68l-12.54-23.042c-10.656-19.5-34.285-43.18-53.776-53.836l-22.917-12.566l22.917-12.547
			c19.5-10.665,43.129-34.297,53.776-53.788l12.54-22.926l12.54,22.916c10.647,19.491,34.267,43.11,53.776,53.784l22.917,13.013
			L446.944,130.846z"/>
	</g>
</g>
<g>
	<g>
		<path d="M438.136,386.196l-37.72-20.631c-16.282-8.907-37.549-30.174-46.447-46.443l-20.636-37.729
			c-3.227-5.923-12.964-5.923-16.191,0l-20.645,37.734c-8.889,16.268-30.156,37.535-46.429,46.438l-37.729,20.631
			c-2.966,1.618-4.805,4.724-4.805,8.1c0,3.376,1.839,6.482,4.805,8.1l37.729,20.636c16.264,8.894,37.531,30.161,46.438,46.438
			l20.636,37.729c1.614,2.962,4.724,4.801,8.096,4.801c3.372,0,6.482-1.839,8.096-4.801l20.636-37.269
			c8.907-16.268,30.174-39.054,46.447-45.978h-0.009l37.729-21.096c2.966-1.618,4.805-4.954,4.805-8.33
			C442.942,391.15,441.102,387.814,438.136,386.196z M391.554,407.797c0,0,0,0-0.009,0c-19.491,9.232-43.111,33.803-53.767,53.294
			l-12.54,22.68l-12.54-23.042c-10.656-19.5-34.285-43.18-53.776-53.836l-22.917-12.566l22.917-12.547
			c19.5-10.665,43.129-34.297,53.776-53.788l12.54-22.926l12.54,22.916c10.647,19.491,34.267,43.11,53.776,53.784l22.917,13.013
			L391.554,407.797z"/>
	</g>
</g>
<g>
</g>
<g>
</g>
<g>
</g>
<g>
</g>
<g>
</g>
<g>
</g>
<g>
</g>
<g>
</g>
<g>
</g>
<g>
</g>
<g>
</g>
<g>
</g>
<g>
</g>
<g>
</g>
<g>
</g>
</svg>
