<svg width="201" height="70" viewbox="0 0 201 70" fill="none" xmlns="http://www.w3.org/2000/svg">
        <g filter="url(#filter0_i)">
          <path d="M51.6007 53.44C52.4007 53.44 53.0327 53.612 53.4967 53.956C53.9607 54.3 54.1927 54.784 54.1927 55.408C54.1927 55.64 54.1487 55.848 54.0607 56.032C53.9807 56.216 53.8727 56.376 53.7367 56.512C53.6087 56.64 53.4607 56.748 53.2927 56.836C53.1327 56.924 52.9687 56.988 52.8007 57.028C53.0247 57.068 53.2327 57.136 53.4247 57.232C53.6247 57.32 53.7967 57.44 53.9407 57.592C54.0927 57.744 54.2087 57.928 54.2887 58.144C54.3767 58.352 54.4207 58.592 54.4207 58.864C54.4207 59.176 54.3527 59.464 54.2167 59.728C54.0807 59.984 53.8847 60.208 53.6287 60.4C53.3807 60.592 53.0767 60.74 52.7167 60.844C52.3647 60.948 51.9727 61 51.5407 61H48.9007V53.44H51.6007ZM50.5447 56.464H51.3247C51.6847 56.464 51.9687 56.388 52.1767 56.236C52.3927 56.076 52.5007 55.84 52.5007 55.528C52.5007 55.248 52.4007 55.04 52.2007 54.904C52.0087 54.76 51.7287 54.688 51.3607 54.688H50.5447V56.464ZM50.5447 59.752H51.3247C51.7327 59.752 52.0687 59.676 52.3327 59.524C52.5967 59.364 52.7287 59.092 52.7287 58.708C52.7287 58.348 52.5887 58.092 52.3087 57.94C52.0287 57.78 51.6847 57.7 51.2767 57.7H50.5447V59.752ZM64.0965 58.552H60.2925V58.6C60.2925 59.056 60.4525 59.396 60.7725 59.62C61.0925 59.844 61.5045 59.956 62.0085 59.956C62.3285 59.956 62.6085 59.924 62.8485 59.86C63.0965 59.796 63.3205 59.72 63.5205 59.632L63.8085 60.748C63.5925 60.852 63.3205 60.94 62.9925 61.012C62.6645 61.092 62.2765 61.132 61.8285 61.132C61.3965 61.132 60.9885 61.076 60.6045 60.964C60.2285 60.844 59.8965 60.664 59.6085 60.424C59.3285 60.184 59.1045 59.88 58.9365 59.512C58.7685 59.144 58.6845 58.704 58.6845 58.192C58.6845 57.736 58.7525 57.324 58.8885 56.956C59.0245 56.58 59.2165 56.26 59.4645 55.996C59.7205 55.732 60.0245 55.528 60.3765 55.384C60.7285 55.232 61.1205 55.156 61.5525 55.156C62.3285 55.156 62.9445 55.392 63.4005 55.864C63.8645 56.336 64.0965 56.996 64.0965 57.844V58.552ZM62.4645 57.46C62.4645 57.308 62.4445 57.16 62.4045 57.016C62.3725 56.872 62.3165 56.748 62.2365 56.644C62.1565 56.532 62.0565 56.444 61.9365 56.38C61.8165 56.316 61.6685 56.284 61.4925 56.284C61.1725 56.284 60.9085 56.392 60.7005 56.608C60.4925 56.824 60.3685 57.116 60.3285 57.484L62.4645 57.46ZM75.9408 53.44L77.5488 56.38L79.1808 53.44H80.9688L78.3288 57.88V61H76.6848V57.88L74.0928 53.44H75.9408ZM89.9609 58.096C89.9609 58.568 89.8849 58.992 89.7329 59.368C89.5809 59.744 89.3689 60.064 89.0969 60.328C88.8329 60.584 88.5209 60.784 88.1609 60.928C87.8009 61.064 87.4129 61.132 86.9969 61.132C86.5809 61.132 86.1929 61.068 85.8329 60.94C85.4809 60.812 85.1729 60.624 84.9089 60.376C84.6529 60.128 84.4489 59.824 84.2969 59.464C84.1529 59.096 84.0809 58.68 84.0809 58.216C84.0809 57.728 84.1569 57.296 84.3089 56.92C84.4609 56.536 84.6689 56.216 84.9329 55.96C85.2049 55.696 85.5209 55.496 85.8809 55.36C86.2409 55.224 86.6289 55.156 87.0449 55.156C87.4609 55.156 87.8449 55.22 88.1969 55.348C88.5569 55.476 88.8649 55.664 89.1209 55.912C89.3849 56.152 89.5889 56.456 89.7329 56.824C89.8849 57.192 89.9609 57.616 89.9609 58.096ZM88.3169 58.156C88.3169 57.828 88.2809 57.548 88.2089 57.316C88.1369 57.084 88.0409 56.896 87.9209 56.752C87.8009 56.608 87.6609 56.504 87.5009 56.44C87.3409 56.368 87.1769 56.332 87.0089 56.332C86.8409 56.332 86.6809 56.364 86.5289 56.428C86.3769 56.484 86.2409 56.584 86.1209 56.728C86.0009 56.864 85.9049 57.048 85.8329 57.28C85.7609 57.512 85.7249 57.804 85.7249 58.156C85.7249 58.468 85.7609 58.74 85.8329 58.972C85.9049 59.196 86.0009 59.38 86.1209 59.524C86.2489 59.668 86.3889 59.776 86.5409 59.848C86.7009 59.92 86.8649 59.956 87.0329 59.956C87.2009 59.956 87.3609 59.928 87.5129 59.872C87.6649 59.808 87.8009 59.704 87.9209 59.56C88.0409 59.416 88.1369 59.232 88.2089 59.008C88.2809 58.776 88.3169 58.492 88.3169 58.156ZM98.152 55.276H99.748V61H98.56L98.392 60.352H98.344C98.256 60.44 98.152 60.532 98.032 60.628C97.92 60.716 97.784 60.8 97.624 60.88C97.472 60.952 97.296 61.012 97.096 61.06C96.904 61.108 96.688 61.132 96.448 61.132C95.832 61.132 95.344 60.96 94.984 60.616C94.632 60.272 94.456 59.764 94.456 59.092V55.276H96.052V58.96C96.052 59.304 96.132 59.552 96.292 59.704C96.46 59.856 96.672 59.932 96.928 59.932C97.216 59.932 97.46 59.872 97.66 59.752C97.868 59.632 98.032 59.492 98.152 59.332V55.276ZM104.543 61V55.276H105.779L105.959 56.308C106.095 56.004 106.311 55.736 106.607 55.504C106.903 55.272 107.275 55.156 107.723 55.156C107.907 55.156 108.071 55.176 108.215 55.216C108.359 55.256 108.479 55.304 108.575 55.36L108.311 56.62C108.223 56.572 108.111 56.532 107.975 56.5C107.839 56.46 107.679 56.44 107.495 56.44C107.103 56.44 106.775 56.572 106.511 56.836C106.255 57.092 106.127 57.516 106.127 58.108V61H104.543ZM121.512 53.44C122.312 53.44 122.944 53.612 123.408 53.956C123.872 54.3 124.104 54.784 124.104 55.408C124.104 55.64 124.06 55.848 123.972 56.032C123.892 56.216 123.784 56.376 123.648 56.512C123.52 56.64 123.372 56.748 123.204 56.836C123.044 56.924 122.88 56.988 122.712 57.028C122.936 57.068 123.144 57.136 123.336 57.232C123.536 57.32 123.708 57.44 123.852 57.592C124.004 57.744 124.12 57.928 124.2 58.144C124.288 58.352 124.332 58.592 124.332 58.864C124.332 59.176 124.264 59.464 124.128 59.728C123.992 59.984 123.796 60.208 123.54 60.4C123.292 60.592 122.988 60.74 122.628 60.844C122.276 60.948 121.884 61 121.452 61H118.812V53.44H121.512ZM120.456 56.464H121.236C121.596 56.464 121.88 56.388 122.088 56.236C122.304 56.076 122.412 55.84 122.412 55.528C122.412 55.248 122.312 55.04 122.112 54.904C121.92 54.76 121.64 54.688 121.272 54.688H120.456V56.464ZM120.456 59.752H121.236C121.644 59.752 121.98 59.676 122.244 59.524C122.508 59.364 122.64 59.092 122.64 58.708C122.64 58.348 122.5 58.092 122.22 57.94C121.94 57.78 121.596 57.7 121.188 57.7H120.456V59.752ZM134.008 58.552H130.204V58.6C130.204 59.056 130.364 59.396 130.684 59.62C131.004 59.844 131.416 59.956 131.92 59.956C132.24 59.956 132.52 59.924 132.76 59.86C133.008 59.796 133.232 59.72 133.432 59.632L133.72 60.748C133.504 60.852 133.232 60.94 132.904 61.012C132.576 61.092 132.188 61.132 131.74 61.132C131.308 61.132 130.9 61.076 130.516 60.964C130.14 60.844 129.808 60.664 129.52 60.424C129.24 60.184 129.016 59.88 128.848 59.512C128.68 59.144 128.596 58.704 128.596 58.192C128.596 57.736 128.664 57.324 128.8 56.956C128.936 56.58 129.128 56.26 129.376 55.996C129.632 55.732 129.936 55.528 130.288 55.384C130.64 55.232 131.032 55.156 131.464 55.156C132.24 55.156 132.856 55.392 133.312 55.864C133.776 56.336 134.008 56.996 134.008 57.844V58.552ZM132.376 57.46C132.376 57.308 132.356 57.16 132.316 57.016C132.284 56.872 132.228 56.748 132.148 56.644C132.068 56.532 131.968 56.444 131.848 56.38C131.728 56.316 131.58 56.284 131.404 56.284C131.084 56.284 130.82 56.392 130.612 56.608C130.404 56.824 130.28 57.116 130.24 57.484L132.376 57.46ZM141.946 56.644C141.474 56.42 141.018 56.308 140.578 56.308C140.322 56.308 140.122 56.352 139.978 56.44C139.842 56.528 139.774 56.648 139.774 56.8C139.774 56.952 139.834 57.076 139.954 57.172C140.082 57.268 140.334 57.372 140.71 57.484L141.07 57.592C141.566 57.736 141.942 57.944 142.198 58.216C142.454 58.488 142.582 58.84 142.582 59.272C142.582 59.84 142.362 60.292 141.922 60.628C141.49 60.964 140.902 61.132 140.158 61.132C139.398 61.132 138.746 60.996 138.202 60.724L138.562 59.548C138.794 59.668 139.038 59.768 139.294 59.848C139.55 59.92 139.81 59.956 140.074 59.956C140.394 59.956 140.626 59.908 140.77 59.812C140.922 59.708 140.998 59.576 140.998 59.416C140.998 59.248 140.926 59.12 140.782 59.032C140.638 58.936 140.366 58.832 139.966 58.72L139.594 58.612C139.114 58.452 138.762 58.24 138.538 57.976C138.314 57.712 138.202 57.36 138.202 56.92C138.202 56.4 138.398 55.976 138.79 55.648C139.182 55.32 139.73 55.156 140.434 55.156C141.13 55.156 141.746 55.28 142.282 55.528L141.946 56.644ZM150.485 56.428H148.961V59.068C148.961 59.34 149.021 59.528 149.141 59.632C149.269 59.728 149.437 59.776 149.645 59.776C149.805 59.776 149.969 59.76 150.137 59.728C150.305 59.696 150.441 59.652 150.545 59.596L150.785 60.712C150.649 60.776 150.445 60.84 150.173 60.904C149.901 60.968 149.613 61 149.309 61C148.613 61 148.117 60.864 147.821 60.592C147.525 60.312 147.377 59.896 147.377 59.344V56.428H146.489V55.276H147.377V53.512H148.961V55.276H150.485V56.428Z" fill="#3A3A3A"></path>
        </g>
        <g filter="url(#filter1_i)">
          <path d="M47.1325 37.519C47.5398 37.519 47.8532 37.707 48.0725 38.083C48.3232 38.459 48.4485 38.976 48.4485 39.634C48.4485 40.856 48.1508 41.8273 47.5555 42.548C44.4535 46.3393 41.1478 48.235 37.6385 48.235C34.5992 48.235 32.1708 47.06 30.3535 44.71C28.5362 42.36 27.6275 38.9917 27.6275 34.605C27.6275 33.5397 27.6745 32.4743 27.7685 31.409C25.7005 31.785 23.4445 32.067 21.0005 32.255C19.3712 32.3803 18.2588 32.4587 17.6635 32.49C17.0368 35.686 16.1595 39.6027 15.0315 44.24C14.3735 46.966 13.1202 48.329 11.2715 48.329C9.26616 48.329 8.26349 47.4203 8.26349 45.603C8.26349 45.1957 8.34183 44.6317 8.49849 43.911C9.56383 39.6183 10.4098 35.9837 11.0365 33.007L8.78049 33.101C7.74649 33.101 6.99449 32.9287 6.52449 32.584C6.05449 32.208 5.81949 31.6127 5.81949 30.798C5.81949 29.764 6.11716 29.012 6.71249 28.542C7.30783 28.0407 8.29483 27.7587 9.67349 27.696L12.1645 27.602C12.9792 23.184 13.3865 19.8157 13.3865 17.497C13.3865 16.0243 13.1672 15.0217 12.7285 14.489C12.2898 13.9563 11.7102 13.69 10.9895 13.69C8.79616 13.69 6.32083 15.523 3.56349 19.189C3.15616 19.7217 2.70183 19.988 2.20049 19.988C1.76183 19.988 1.38583 19.7843 1.07249 19.377C0.759159 18.9697 0.602492 18.4527 0.602492 17.826C0.602492 16.8547 0.994159 15.8207 1.77749 14.724C3.15616 12.8127 4.89516 11.246 6.99449 10.024C9.09383 8.77066 11.2245 8.144 13.3865 8.144C15.4232 8.144 16.9898 8.849 18.0865 10.259C19.2145 11.6377 19.7785 13.7997 19.7785 16.745C19.7785 19.3457 19.4025 22.8707 18.6505 27.32L23.2565 27.085C25.2305 26.991 26.9225 26.8343 28.3325 26.615C28.8965 23.1683 29.7582 19.941 30.9175 16.933C32.0768 13.925 33.5182 11.481 35.2415 9.601C36.9648 7.721 38.8918 6.781 41.0225 6.781C42.5892 6.781 43.8268 7.40767 44.7355 8.661C45.6442 9.883 46.0985 11.4967 46.0985 13.502C46.0985 21.2727 42.1348 26.662 34.2075 29.67C34.1135 30.9233 34.0665 32.2237 34.0665 33.571C34.0665 36.861 34.4738 39.1953 35.2885 40.574C36.1032 41.9527 37.2468 42.642 38.7195 42.642C40.0042 42.642 41.1792 42.313 42.2445 41.655C43.3098 40.9657 44.5162 39.8063 45.8635 38.177C46.2395 37.7383 46.6625 37.519 47.1325 37.519ZM40.7875 10.87C40.0982 10.87 39.3618 11.4967 38.5785 12.75C37.8265 14.0033 37.1058 15.711 36.4165 17.873C35.7272 20.035 35.1788 22.4007 34.7715 24.97C37.2782 23.936 39.1268 22.4633 40.3175 20.552C41.5082 18.6407 42.1035 16.181 42.1035 13.173C42.1035 12.4523 41.9782 11.8883 41.7275 11.481C41.4768 11.0737 41.1635 10.87 40.7875 10.87ZM50.4247 48.235C48.482 48.235 46.931 47.53 45.7717 46.12C44.6124 44.71 44.0327 42.8613 44.0327 40.574C44.0327 38.0673 44.6124 35.7017 45.7717 33.477C46.931 31.221 48.4664 29.4193 50.3777 28.072C52.3204 26.6933 54.3727 26.004 56.5347 26.004C57.224 26.004 57.6784 26.145 57.8977 26.427C58.1484 26.6777 58.352 27.1477 58.5087 27.837C59.1667 27.7117 59.856 27.649 60.5767 27.649C62.112 27.649 62.8797 28.1973 62.8797 29.294C62.8797 29.952 62.6447 31.5187 62.1747 33.994C61.454 37.5973 61.0937 40.104 61.0937 41.514C61.0937 41.984 61.2034 42.36 61.4227 42.642C61.6734 42.924 61.9867 43.065 62.3627 43.065C62.958 43.065 63.6787 42.689 64.5247 41.937C65.3707 41.1537 66.5144 39.9003 67.9557 38.177C68.3317 37.7383 68.7547 37.519 69.2247 37.519C69.632 37.519 69.9454 37.707 70.1647 38.083C70.4154 38.459 70.5407 38.976 70.5407 39.634C70.5407 40.8873 70.243 41.8587 69.6477 42.548C68.363 44.146 67 45.4933 65.5587 46.59C64.1174 47.6867 62.723 48.235 61.3757 48.235C60.3417 48.235 59.386 47.8903 58.5087 47.201C57.6627 46.4803 57.0204 45.509 56.5817 44.287C54.9524 46.919 52.9 48.235 50.4247 48.235ZM52.1167 43.488C52.806 43.488 53.464 43.0807 54.0907 42.266C54.7174 41.4513 55.1717 40.3703 55.4537 39.023L57.1927 30.375C55.8767 30.4063 54.6547 30.9077 53.5267 31.879C52.43 32.819 51.5527 34.0723 50.8947 35.639C50.2367 37.2057 49.9077 38.8663 49.9077 40.621C49.9077 41.5923 50.0957 42.313 50.4717 42.783C50.879 43.253 51.4274 43.488 52.1167 43.488ZM72.8778 22.996C71.5618 22.996 70.5748 22.6983 69.9168 22.103C69.2588 21.4763 68.9298 20.6147 68.9298 19.518C68.9298 18.4213 69.3528 17.5127 70.1988 16.792C71.0762 16.04 72.1572 15.664 73.4418 15.664C74.6012 15.664 75.5412 15.946 76.2618 16.51C76.9825 17.074 77.3428 17.873 77.3428 18.907C77.3428 20.1603 76.9355 21.163 76.1208 21.915C75.3062 22.6357 74.2252 22.996 72.8778 22.996ZM72.5018 48.235C70.4652 48.235 68.9768 47.5143 68.0368 46.073C67.1282 44.6317 66.6738 42.7203 66.6738 40.339C66.6738 38.929 66.8462 37.1273 67.1908 34.934C67.5668 32.7093 68.0368 30.6413 68.6008 28.73C68.8828 27.7273 69.2588 27.038 69.7288 26.662C70.1988 26.286 70.9508 26.098 71.9848 26.098C73.5828 26.098 74.3818 26.6307 74.3818 27.696C74.3818 28.4793 74.0842 30.2967 73.4888 33.148C72.7368 36.5947 72.3608 38.929 72.3608 40.151C72.3608 41.091 72.4862 41.8117 72.7368 42.313C72.9875 42.8143 73.4105 43.065 74.0058 43.065C74.5698 43.065 75.2748 42.6733 76.1208 41.89C76.9668 41.1067 78.0948 39.869 79.5048 38.177C79.8808 37.7383 80.3038 37.519 80.7738 37.519C81.1812 37.519 81.4945 37.707 81.7138 38.083C81.9645 38.459 82.0898 38.976 82.0898 39.634C82.0898 40.8873 81.7922 41.8587 81.1968 42.548C78.0948 46.3393 75.1965 48.235 72.5018 48.235ZM97.2753 32.537C97.9646 32.537 98.5443 32.7877 99.0143 33.289C99.5156 33.759 99.7662 34.3543 99.7662 35.075C99.7662 35.4823 99.6723 35.921 99.4843 36.391C98.9829 37.5503 98.2779 38.5217 97.3693 39.305C96.4606 40.0883 95.4579 40.48 94.3613 40.48C93.4839 40.48 92.7319 40.1667 92.1053 39.54C91.5099 38.9133 91.2123 38.0673 91.2123 37.002C91.2123 36.4067 91.2436 35.7643 91.3063 35.075C91.3689 34.5737 91.4003 34.229 91.4003 34.041C91.4003 33.7903 91.3376 33.6023 91.2123 33.477C91.1183 33.3517 90.9929 33.289 90.8363 33.289C90.3976 33.289 89.8023 33.8217 89.0503 34.887C88.2983 35.921 87.5463 37.2997 86.7943 39.023C86.0423 40.7463 85.4313 42.5637 84.9613 44.475C84.6166 45.979 84.2249 46.9817 83.7863 47.483C83.3476 47.9843 82.6269 48.235 81.6243 48.235C80.4336 48.235 79.5876 47.6083 79.0863 46.355C78.6163 45.1017 78.3813 43.0963 78.3813 40.339C78.3813 36.2657 78.9609 32.396 80.1203 28.73C80.4023 27.8213 80.8566 27.1633 81.4833 26.756C82.1413 26.3173 83.0499 26.098 84.2093 26.098C84.8359 26.098 85.2746 26.1763 85.5253 26.333C85.7759 26.4897 85.9013 26.7873 85.9013 27.226C85.9013 27.7273 85.6663 28.8553 85.1963 30.61C84.8829 31.8633 84.6323 32.96 84.4443 33.9C84.2563 34.84 84.0996 35.9993 83.9743 37.378C85.0083 34.6833 86.1676 32.49 87.4523 30.798C88.7369 29.106 89.9903 27.8997 91.2123 27.179C92.4343 26.4583 93.5466 26.098 94.5493 26.098C95.4579 26.098 96.1473 26.3643 96.6173 26.897C97.1186 27.3983 97.3693 28.1503 97.3693 29.153C97.3693 29.7483 97.1969 30.8763 96.8523 32.537H97.2753ZM114.998 48.384C110.742 48.384 107.334 47.584 104.774 45.984C102.214 44.352 100.934 41.872 100.934 38.544C100.934 36.784 101.238 35.44 101.846 34.512C102.454 33.584 103.35 33.12 104.534 33.12C105.398 33.12 106.102 33.344 106.646 33.792C107.19 34.24 107.462 34.816 107.462 35.52C107.462 36.16 107.414 36.72 107.318 37.2C107.318 37.328 107.286 37.552 107.222 37.872C107.19 38.192 107.174 38.528 107.174 38.88C107.174 40.32 107.894 41.392 109.334 42.096C110.806 42.8 112.854 43.152 115.478 43.152C118.198 43.152 120.326 42.672 121.862 41.712C123.398 40.72 124.166 39.344 124.166 37.584C124.166 36.496 123.814 35.568 123.11 34.8C122.406 34 121.526 33.344 120.47 32.832C119.414 32.288 117.926 31.632 116.006 30.864C113.542 29.904 111.526 28.992 109.958 28.128C108.422 27.264 107.094 26.096 105.974 24.624C104.886 23.12 104.342 21.264 104.342 19.056C104.342 16.752 104.95 14.704 106.166 12.912C107.414 11.12 109.19 9.728 111.494 8.736C113.83 7.744 116.566 7.248 119.702 7.248C122.038 7.248 124.182 7.6 126.134 8.304C128.086 8.976 129.638 10.016 130.79 11.424C131.974 12.832 132.566 14.56 132.566 16.608C132.566 18.624 132.262 20.144 131.654 21.168C131.046 22.192 130.15 22.704 128.966 22.704C128.134 22.704 127.43 22.448 126.854 21.936C126.31 21.424 126.038 20.816 126.038 20.112C126.038 19.504 126.086 18.944 126.182 18.432C126.278 17.472 126.326 16.864 126.326 16.608C126.326 15.264 125.67 14.24 124.358 13.536C123.046 12.832 121.414 12.48 119.462 12.48C116.71 12.48 114.598 12.992 113.126 14.016C111.686 15.008 110.966 16.416 110.966 18.24C110.966 19.456 111.334 20.496 112.07 21.36C112.838 22.224 113.782 22.944 114.902 23.52C116.022 24.096 117.59 24.784 119.606 25.584C122.038 26.576 123.99 27.472 125.462 28.272C126.934 29.072 128.182 30.16 129.206 31.536C130.262 32.912 130.79 34.608 130.79 36.624C130.79 40.4 129.35 43.312 126.47 45.36C123.622 47.376 119.798 48.384 114.998 48.384ZM138.061 48.24C136.845 48.24 135.981 47.6 135.469 46.32C134.989 45.04 134.749 42.992 134.749 40.176C134.749 36.016 135.341 32.064 136.525 28.32C136.813 27.392 137.277 26.72 137.917 26.304C138.589 25.856 139.517 25.632 140.701 25.632C141.341 25.632 141.789 25.712 142.045 25.872C142.301 26.032 142.429 26.336 142.429 26.784C142.429 27.296 142.189 28.448 141.709 30.24C141.389 31.52 141.133 32.64 140.941 33.6C140.749 34.56 140.589 35.744 140.461 37.152C141.517 34.4 142.701 32.16 144.013 30.432C145.325 28.704 146.605 27.472 147.853 26.736C149.133 26 150.301 25.632 151.357 25.632C153.437 25.632 154.477 26.672 154.477 28.752C154.477 30 154.125 32.256 153.421 35.52C152.813 38.304 152.509 40.144 152.509 41.04C152.509 42.32 152.973 42.96 153.901 42.96C154.541 42.96 155.293 42.576 156.157 41.808C157.053 41.008 158.237 39.728 159.709 37.968C160.093 37.52 160.525 37.296 161.005 37.296C161.421 37.296 161.741 37.488 161.965 37.872C162.221 38.256 162.349 38.784 162.349 39.456C162.349 40.736 162.045 41.728 161.437 42.432C160.061 44.128 158.573 45.52 156.973 46.608C155.405 47.696 153.613 48.24 151.597 48.24C149.965 48.24 148.733 47.776 147.901 46.848C147.069 45.888 146.653 44.512 146.653 42.72C146.653 41.824 146.877 40.224 147.325 37.92C147.741 35.904 147.949 34.512 147.949 33.744C147.949 33.232 147.773 32.976 147.421 32.976C147.005 32.976 146.413 33.52 145.645 34.608C144.909 35.664 144.141 37.072 143.341 38.832C142.573 40.592 141.949 42.448 141.469 44.4C141.117 45.904 140.701 46.928 140.221 47.472C139.773 47.984 139.053 48.24 138.061 48.24ZM164.369 48.24C162.385 48.24 160.801 47.52 159.617 46.08C158.433 44.64 157.841 42.752 157.841 40.416C157.841 37.856 158.433 35.44 159.617 33.168C160.801 30.864 162.369 29.024 164.321 27.648C166.305 26.24 168.401 25.536 170.609 25.536C171.313 25.536 171.777 25.68 172.001 25.968C172.257 26.224 172.465 26.704 172.625 27.408C173.297 27.28 174.001 27.216 174.737 27.216C176.305 27.216 177.089 27.776 177.089 28.896C177.089 29.568 176.849 31.168 176.369 33.696C175.633 37.376 175.265 39.936 175.265 41.376C175.265 41.856 175.377 42.24 175.601 42.528C175.857 42.816 176.177 42.96 176.561 42.96C177.169 42.96 177.905 42.576 178.769 41.808C179.633 41.008 180.801 39.728 182.273 37.968C182.657 37.52 183.089 37.296 183.569 37.296C183.985 37.296 184.305 37.488 184.529 37.872C184.785 38.256 184.913 38.784 184.913 39.456C184.913 40.736 184.609 41.728 184.001 42.432C182.689 44.064 181.297 45.44 179.825 46.56C178.353 47.68 176.929 48.24 175.553 48.24C174.497 48.24 173.521 47.888 172.625 47.184C171.761 46.448 171.105 45.456 170.657 44.208C168.993 46.896 166.897 48.24 164.369 48.24ZM166.097 43.392C166.801 43.392 167.473 42.976 168.113 42.144C168.753 41.312 169.217 40.208 169.505 38.832L171.281 30C169.937 30.032 168.689 30.544 167.537 31.536C166.417 32.496 165.521 33.776 164.849 35.376C164.177 36.976 163.841 38.672 163.841 40.464C163.841 41.456 164.033 42.192 164.417 42.672C164.833 43.152 165.393 43.392 166.097 43.392ZM200.02 33.36C200.02 35.888 199.428 38.288 198.244 40.56C197.092 42.8 195.54 44.624 193.588 46.032C191.668 47.44 189.604 48.176 187.396 48.24C186.98 54.416 186.036 59.568 184.564 63.696C183.092 67.856 180.932 69.936 178.084 69.936C176.356 69.936 175.076 69.312 174.244 68.064C173.412 66.816 172.996 65.088 172.996 62.88C172.996 59.744 173.716 56.08 175.156 51.888C176.596 47.728 178.82 43.136 181.828 38.112C181.828 33.44 181.796 30.192 181.732 28.368C181.7 27.44 182.068 26.704 182.836 26.16C183.604 25.616 184.564 25.344 185.716 25.344C186.388 25.344 186.868 25.488 187.156 25.776C187.476 26.032 187.652 26.56 187.684 27.36C187.684 28.16 187.7 28.752 187.732 29.136C188.756 27.856 189.764 26.944 190.756 26.4C191.748 25.824 192.804 25.536 193.924 25.536C195.716 25.536 197.172 26.256 198.292 27.696C199.444 29.136 200.02 31.024 200.02 33.36ZM187.636 43.632C188.788 43.376 189.844 42.752 190.804 41.76C191.796 40.736 192.58 39.488 193.156 38.016C193.732 36.512 194.02 34.944 194.02 33.312C194.02 32.352 193.828 31.632 193.444 31.152C193.06 30.64 192.548 30.384 191.908 30.384C190.756 30.384 189.364 31.6 187.732 34.032C187.7 35.44 187.684 37.504 187.684 40.224C187.684 41.696 187.668 42.832 187.636 43.632ZM178.468 65.232C179.332 65.232 180.052 63.344 180.628 59.568C181.204 55.824 181.572 51.152 181.732 45.552C180.356 48.752 179.268 51.808 178.468 54.72C177.668 57.632 177.268 60.08 177.268 62.064C177.268 63.088 177.396 63.872 177.652 64.416C177.876 64.96 178.148 65.232 178.468 65.232Z" fill="#6B4FA1"></path>
        </g>
        <path d="M79.6223 12.271C78.1508 10.5646 75.7505 10.6247 74.1419 12.2208L73.512 12.845L72.9926 12.1144C71.6694 10.2469 69.3119 9.74613 67.5862 11.1565C65.6083 12.7756 65.2502 15.9769 66.7315 18.0676L71.8324 25.2577C72.1619 25.7219 72.7541 25.7768 73.1539 25.38L79.3424 19.2352C81.1429 17.4485 81.3084 14.2293 79.6223 12.271V12.271Z" fill="#FF3636"></path>
        <defs>
          <filter id="filter0_i" x="48.9007" y="53.44" width="101.884" height="11.692" filterunits="userSpaceOnUse" color-interpolation-filters="sRGB">
            <feflood flood-opacity="0" result="BackgroundImageFix"></feflood>
            <feblend mode="normal" in="SourceGraphic" in2="BackgroundImageFix" result="shape"></feblend>
            <fecolormatrix in="SourceAlpha" type="matrix" values="0 0 0 0 0 0 0 0 0 0 0 0 0 0 0 0 0 0 127 0" result="hardAlpha"></fecolormatrix>
            <feoffset dy="4"></feoffset>
            <fegaussianblur stddeviation="2"></fegaussianblur>
            <fecomposite in2="hardAlpha" operator="arithmetic" k2="-1" k3="1"></fecomposite>
            <fecolormatrix type="matrix" values="0 0 0 0 0 0 0 0 0 0 0 0 0 0 0 0 0 0 0.25 0"></fecolormatrix>
            <feblend mode="normal" in2="shape" result="effect1_innerShadow"></feblend>
          </filter>
          <filter id="filter1_i" x="0.602478" y="6.781" width="199.418" height="67.155" filterunits="userSpaceOnUse" color-interpolation-filters="sRGB">
            <feflood flood-opacity="0" result="BackgroundImageFix"></feflood>
            <feblend mode="normal" in="SourceGraphic" in2="BackgroundImageFix" result="shape"></feblend>
            <fecolormatrix in="SourceAlpha" type="matrix" values="0 0 0 0 0 0 0 0 0 0 0 0 0 0 0 0 0 0 127 0" result="hardAlpha"></fecolormatrix>
            <feoffset dy="4"></feoffset>
            <fegaussianblur stddeviation="2"></fegaussianblur>
            <fecomposite in2="hardAlpha" operator="arithmetic" k2="-1" k3="1"></fecomposite>
            <fecolormatrix type="matrix" values="0 0 0 0 0 0 0 0 0 0 0 0 0 0 0 0 0 0 0.25 0"></fecolormatrix>
            <feblend mode="normal" in2="shape" result="effect1_innerShadow"></feblend>
          </filter>
        </defs></svg>