<svg width="566" height="211" viewBox="0 0 566 211" fill="none" xmlns="http://www.w3.org/2000/svg">
<path d="M118.974 128.355C119.971 128.355 120.737 128.815 121.274 129.735C121.887 130.655 122.194 131.92 122.194 133.53C122.194 136.52 121.466 138.897 120.009 140.66C112.419 149.937 104.331 154.575 95.7441 154.575C88.3074 154.575 82.3657 151.7 77.9191 145.95C73.4724 140.2 71.2491 131.958 71.2491 121.225C71.2491 118.618 71.3641 116.012 71.5941 113.405C66.5341 114.325 61.0141 115.015 55.0341 115.475C51.0474 115.782 48.3257 115.973 46.8691 116.05C45.3357 123.87 43.1891 133.453 40.4291 144.8C38.8191 151.47 35.7524 154.805 31.2291 154.805C26.3224 154.805 23.8691 152.582 23.8691 148.135C23.8691 147.138 24.0607 145.758 24.4441 143.995C27.0507 133.492 29.1207 124.598 30.6541 117.315L25.1341 117.545C22.6041 117.545 20.7641 117.123 19.6141 116.28C18.4641 115.36 17.8891 113.903 17.8891 111.91C17.8891 109.38 18.6174 107.54 20.0741 106.39C21.5307 105.163 23.9457 104.473 27.3191 104.32L33.4141 104.09C35.4074 93.28 36.4041 85.0383 36.4041 79.365C36.4041 75.7617 35.8674 73.3083 34.7941 72.005C33.7207 70.7017 32.3024 70.05 30.5391 70.05C25.1724 70.05 19.1157 74.535 12.3691 83.505C11.3724 84.8083 10.2607 85.46 9.03405 85.46C7.96072 85.46 7.04072 84.9617 6.27405 83.965C5.50738 82.9683 5.12405 81.7033 5.12405 80.17C5.12405 77.7933 6.08238 75.2633 7.99905 72.58C11.3724 67.9033 15.6274 64.07 20.7641 61.08C25.9007 58.0133 31.1141 56.48 36.4041 56.48C41.3874 56.48 45.2207 58.205 47.9041 61.655C50.6641 65.0283 52.0441 70.3183 52.0441 77.525C52.0441 83.8883 51.1241 92.5133 49.2841 103.4L60.5541 102.825C65.3841 102.595 69.5241 102.212 72.9741 101.675C74.3541 93.2417 76.4624 85.345 79.2991 77.985C82.1357 70.625 85.6624 64.645 89.8791 60.045C94.0957 55.445 98.8107 53.145 104.024 53.145C107.857 53.145 110.886 54.6783 113.109 57.745C115.332 60.735 116.444 64.6833 116.444 69.59C116.444 88.6033 106.746 101.79 87.3491 109.15C87.1191 112.217 87.0041 115.398 87.0041 118.695C87.0041 126.745 88.0007 132.457 89.9941 135.83C91.9874 139.203 94.7857 140.89 98.3891 140.89C101.532 140.89 104.407 140.085 107.014 138.475C109.621 136.788 112.572 133.952 115.869 129.965C116.789 128.892 117.824 128.355 118.974 128.355ZM103.449 63.15C101.762 63.15 99.9607 64.6833 98.0441 67.75C96.2041 70.8167 94.4407 74.995 92.7541 80.285C91.0674 85.575 89.7257 91.3633 88.7291 97.65C94.8624 95.12 99.3857 91.5167 102.299 86.84C105.212 82.1633 106.669 76.145 106.669 68.785C106.669 67.0217 106.362 65.6417 105.749 64.645C105.136 63.6483 104.369 63.15 103.449 63.15ZM127.029 154.575C122.276 154.575 118.481 152.85 115.644 149.4C112.808 145.95 111.389 141.427 111.389 135.83C111.389 129.697 112.808 123.908 115.644 118.465C118.481 112.945 122.238 108.537 126.914 105.24C131.668 101.867 136.689 100.18 141.979 100.18C143.666 100.18 144.778 100.525 145.314 101.215C145.928 101.828 146.426 102.978 146.809 104.665C148.419 104.358 150.106 104.205 151.869 104.205C155.626 104.205 157.504 105.547 157.504 108.23C157.504 109.84 156.929 113.673 155.779 119.73C154.016 128.547 153.134 134.68 153.134 138.13C153.134 139.28 153.403 140.2 153.939 140.89C154.553 141.58 155.319 141.925 156.239 141.925C157.696 141.925 159.459 141.005 161.529 139.165C163.599 137.248 166.398 134.182 169.924 129.965C170.844 128.892 171.879 128.355 173.029 128.355C174.026 128.355 174.793 128.815 175.329 129.735C175.943 130.655 176.249 131.92 176.249 133.53C176.249 136.597 175.521 138.973 174.064 140.66C170.921 144.57 167.586 147.867 164.059 150.55C160.533 153.233 157.121 154.575 153.824 154.575C151.294 154.575 148.956 153.732 146.809 152.045C144.739 150.282 143.168 147.905 142.094 144.915C138.108 151.355 133.086 154.575 127.029 154.575ZM131.169 142.96C132.856 142.96 134.466 141.963 135.999 139.97C137.533 137.977 138.644 135.332 139.334 132.035L143.589 110.875C140.369 110.952 137.379 112.178 134.619 114.555C131.936 116.855 129.789 119.922 128.179 123.755C126.569 127.588 125.764 131.652 125.764 135.945C125.764 138.322 126.224 140.085 127.144 141.235C128.141 142.385 129.483 142.96 131.169 142.96ZM181.968 92.82C178.748 92.82 176.333 92.0917 174.723 90.635C173.113 89.1017 172.308 86.9933 172.308 84.31C172.308 81.6267 173.343 79.4033 175.413 77.64C177.56 75.8 180.205 74.88 183.348 74.88C186.185 74.88 188.485 75.57 190.248 76.95C192.011 78.33 192.893 80.285 192.893 82.815C192.893 85.8817 191.896 88.335 189.903 90.175C187.91 91.9383 185.265 92.82 181.968 92.82ZM181.048 154.575C176.065 154.575 172.423 152.812 170.123 149.285C167.9 145.758 166.788 141.082 166.788 135.255C166.788 131.805 167.21 127.397 168.053 122.03C168.973 116.587 170.123 111.527 171.503 106.85C172.193 104.397 173.113 102.71 174.263 101.79C175.413 100.87 177.253 100.41 179.783 100.41C183.693 100.41 185.648 101.713 185.648 104.32C185.648 106.237 184.92 110.683 183.463 117.66C181.623 126.093 180.703 131.805 180.703 134.795C180.703 137.095 181.01 138.858 181.623 140.085C182.236 141.312 183.271 141.925 184.728 141.925C186.108 141.925 187.833 140.967 189.903 139.05C191.973 137.133 194.733 134.105 198.183 129.965C199.103 128.892 200.138 128.355 201.288 128.355C202.285 128.355 203.051 128.815 203.588 129.735C204.201 130.655 204.508 131.92 204.508 133.53C204.508 136.597 203.78 138.973 202.323 140.66C194.733 149.937 187.641 154.575 181.048 154.575ZM241.664 116.165C243.35 116.165 244.769 116.778 245.919 118.005C247.145 119.155 247.759 120.612 247.759 122.375C247.759 123.372 247.529 124.445 247.069 125.595C245.842 128.432 244.117 130.808 241.894 132.725C239.67 134.642 237.217 135.6 234.534 135.6C232.387 135.6 230.547 134.833 229.014 133.3C227.557 131.767 226.829 129.697 226.829 127.09C226.829 125.633 226.905 124.062 227.059 122.375C227.212 121.148 227.289 120.305 227.289 119.845C227.289 119.232 227.135 118.772 226.829 118.465C226.599 118.158 226.292 118.005 225.909 118.005C224.835 118.005 223.379 119.308 221.539 121.915C219.699 124.445 217.859 127.818 216.019 132.035C214.179 136.252 212.684 140.698 211.534 145.375C210.69 149.055 209.732 151.508 208.659 152.735C207.585 153.962 205.822 154.575 203.369 154.575C200.455 154.575 198.385 153.042 197.159 149.975C196.009 146.908 195.434 142.002 195.434 135.255C195.434 125.288 196.852 115.82 199.689 106.85C200.379 104.627 201.49 103.017 203.024 102.02C204.634 100.947 206.857 100.41 209.694 100.41C211.227 100.41 212.3 100.602 212.914 100.985C213.527 101.368 213.834 102.097 213.834 103.17C213.834 104.397 213.259 107.157 212.109 111.45C211.342 114.517 210.729 117.2 210.269 119.5C209.809 121.8 209.425 124.637 209.119 128.01C211.649 121.417 214.485 116.05 217.629 111.91C220.772 107.77 223.839 104.818 226.829 103.055C229.819 101.292 232.54 100.41 234.994 100.41C237.217 100.41 238.904 101.062 240.054 102.365C241.28 103.592 241.894 105.432 241.894 107.885C241.894 109.342 241.472 112.102 240.629 116.165H241.664ZM289.937 154.92C279.74 154.92 271.575 153.003 265.442 149.17C259.308 145.26 256.242 139.318 256.242 131.345C256.242 127.128 256.97 123.908 258.427 121.685C259.883 119.462 262.03 118.35 264.867 118.35C266.937 118.35 268.623 118.887 269.927 119.96C271.23 121.033 271.882 122.413 271.882 124.1C271.882 125.633 271.767 126.975 271.537 128.125C271.537 128.432 271.46 128.968 271.307 129.735C271.23 130.502 271.192 131.307 271.192 132.15C271.192 135.6 272.917 138.168 276.367 139.855C279.893 141.542 284.8 142.385 291.087 142.385C297.603 142.385 302.702 141.235 306.382 138.935C310.062 136.558 311.902 133.262 311.902 129.045C311.902 126.438 311.058 124.215 309.372 122.375C307.685 120.458 305.577 118.887 303.047 117.66C300.517 116.357 296.952 114.785 292.352 112.945C286.448 110.645 281.618 108.46 277.862 106.39C274.182 104.32 271 101.522 268.317 97.995C265.71 94.3917 264.407 89.945 264.407 84.655C264.407 79.135 265.863 74.2283 268.777 69.935C271.767 65.6417 276.022 62.3067 281.542 59.93C287.138 57.5533 293.693 56.365 301.207 56.365C306.803 56.365 311.94 57.2083 316.617 58.895C321.293 60.505 325.012 62.9967 327.772 66.37C330.608 69.7433 332.027 73.8833 332.027 78.79C332.027 83.62 331.298 87.2617 329.842 89.715C328.385 92.1683 326.238 93.395 323.402 93.395C321.408 93.395 319.722 92.7817 318.342 91.555C317.038 90.3283 316.387 88.8717 316.387 87.185C316.387 85.7283 316.502 84.3867 316.732 83.16C316.962 80.86 317.077 79.4033 317.077 78.79C317.077 75.57 315.505 73.1167 312.362 71.43C309.218 69.7433 305.308 68.9 300.632 68.9C294.038 68.9 288.978 70.1267 285.452 72.58C282.002 74.9567 280.277 78.33 280.277 82.7C280.277 85.6133 281.158 88.105 282.922 90.175C284.762 92.245 287.023 93.97 289.707 95.35C292.39 96.73 296.147 98.3783 300.977 100.295C306.803 102.672 311.48 104.818 315.007 106.735C318.533 108.652 321.523 111.258 323.977 114.555C326.507 117.852 327.772 121.915 327.772 126.745C327.772 135.792 324.322 142.768 317.422 147.675C310.598 152.505 301.437 154.92 289.937 154.92ZM387.755 128.355C388.752 128.355 389.518 128.815 390.055 129.735C390.668 130.655 390.975 131.92 390.975 133.53C390.975 136.597 390.247 138.973 388.79 140.66C385.493 144.723 381.89 148.058 377.98 150.665C374.07 153.272 369.585 154.575 364.525 154.575C348.885 154.575 341.065 143.573 341.065 121.57C341.065 118.197 341.18 114.785 341.41 111.335H336.925C334.625 111.335 333.053 110.913 332.21 110.07C331.443 109.227 331.06 107.885 331.06 106.045C331.06 101.752 332.785 99.605 336.235 99.605H342.79C344.093 91.1717 346.087 83.4667 348.77 76.49C351.453 69.5133 354.673 63.955 358.43 59.815C362.263 55.675 366.365 53.605 370.735 53.605C373.955 53.605 376.485 55.0233 378.325 57.86C380.165 60.6967 381.085 64.2617 381.085 68.555C381.085 80.4383 376.102 90.7883 366.135 99.605H379.015C380.242 99.605 381.123 99.8733 381.66 100.41C382.197 100.947 382.465 101.943 382.465 103.4C382.465 108.69 378.133 111.335 369.47 111.335H355.44C355.287 115.168 355.21 118.158 355.21 120.305C355.21 128.278 356.13 133.875 357.97 137.095C359.887 140.315 362.877 141.925 366.94 141.925C370.237 141.925 373.15 140.928 375.68 138.935C378.21 136.942 381.2 133.952 384.65 129.965C385.57 128.892 386.605 128.355 387.755 128.355ZM367.63 64.645C366.48 64.645 365.177 66.1017 363.72 69.015C362.34 71.8517 360.998 75.8383 359.695 80.975C358.468 86.035 357.433 91.67 356.59 97.88C361.113 93.97 364.487 89.6 366.71 84.77C369.01 79.8633 370.16 75.4167 370.16 71.43C370.16 66.9067 369.317 64.645 367.63 64.645ZM440.492 128.585C441.488 128.585 442.255 129.083 442.792 130.08C443.405 131 443.712 132.188 443.712 133.645C443.712 135.408 443.443 136.788 442.907 137.785C442.37 138.782 441.527 139.663 440.377 140.43L418.297 155.265C415.383 171.135 411.55 183.593 406.797 192.64C402.12 201.763 396.14 206.325 388.857 206.325C384.947 206.325 381.765 205.098 379.312 202.645C376.858 200.268 375.632 197.125 375.632 193.215C375.632 189.612 376.437 185.932 378.047 182.175C379.733 178.418 382.8 174.087 387.247 169.18C391.77 164.35 398.133 158.792 406.337 152.505L406.682 149.86C407.218 147.023 407.832 142.96 408.522 137.67C406.988 143.19 404.842 147.407 402.082 150.32C399.322 153.157 396.408 154.575 393.342 154.575C389.892 154.575 387.055 153.003 384.832 149.86C382.685 146.64 381.612 142.653 381.612 137.9C381.612 132.15 381.995 126.898 382.762 122.145C383.528 117.315 384.793 112.217 386.557 106.85C387.323 104.55 388.397 102.902 389.777 101.905C391.157 100.908 393.342 100.41 396.332 100.41C398.018 100.41 399.168 100.678 399.782 101.215C400.472 101.752 400.817 102.557 400.817 103.63C400.817 104.243 400.395 106.313 399.552 109.84C398.785 112.677 398.172 115.245 397.712 117.545C397.098 120.688 396.562 123.717 396.102 126.63C395.642 129.467 395.412 131.805 395.412 133.645C395.412 136.558 396.217 138.015 397.827 138.015C398.977 138.015 400.395 136.865 402.082 134.565C403.845 132.265 405.685 128.777 407.602 124.1C409.595 119.423 411.512 113.673 413.352 106.85C413.965 104.55 414.885 102.902 416.112 101.905C417.415 100.908 419.332 100.41 421.862 100.41C423.625 100.41 424.852 100.64 425.542 101.1C426.232 101.56 426.577 102.327 426.577 103.4C426.577 105.317 425.58 111.91 423.587 123.18L420.597 141.695C426.5 137.248 432.25 133.185 437.847 129.505C438.843 128.892 439.725 128.585 440.492 128.585ZM390.122 195.17C392.038 195.17 394.185 192.947 396.562 188.5C398.938 184.053 401.315 176.655 403.692 166.305C397.788 171.288 393.495 175.812 390.812 179.875C388.205 184.015 386.902 187.618 386.902 190.685C386.902 191.988 387.132 193.062 387.592 193.905C388.128 194.748 388.972 195.17 390.122 195.17ZM480.226 128.355C481.223 128.355 481.989 128.815 482.526 129.735C483.139 130.655 483.446 131.92 483.446 133.53C483.446 136.597 482.718 138.973 481.261 140.66C477.964 144.723 474.361 148.058 470.451 150.665C466.618 153.272 462.248 154.575 457.341 154.575C450.594 154.575 445.573 151.508 442.276 145.375C439.056 139.242 437.446 131.307 437.446 121.57C437.446 112.217 438.634 101.56 441.011 89.6C443.464 77.64 447.029 67.3667 451.706 58.78C456.459 50.1933 462.094 45.9 468.611 45.9C472.291 45.9 475.166 47.625 477.236 51.075C479.383 54.4483 480.456 59.3167 480.456 65.68C480.456 74.8033 477.926 85.3833 472.866 97.42C467.806 109.457 460.944 121.378 452.281 133.185C452.818 136.328 453.699 138.59 454.926 139.97C456.153 141.273 457.763 141.925 459.756 141.925C462.899 141.925 465.659 141.043 468.036 139.28C470.413 137.44 473.441 134.335 477.121 129.965C478.041 128.892 479.076 128.355 480.226 128.355ZM466.081 57.285C464.318 57.285 462.324 60.4667 460.101 66.83C457.878 73.1933 455.923 81.09 454.236 90.52C452.549 99.95 451.629 108.997 451.476 117.66C456.919 108.69 461.251 99.72 464.471 90.75C467.691 81.7033 469.301 73.4617 469.301 66.025C469.301 60.1983 468.228 57.285 466.081 57.285ZM525.441 128.355C526.437 128.355 527.204 128.815 527.741 129.735C528.354 130.655 528.661 131.92 528.661 133.53C528.661 136.597 527.932 138.973 526.476 140.66C523.639 144.11 519.614 147.292 514.401 150.205C509.264 153.118 503.744 154.575 497.841 154.575C489.791 154.575 483.542 152.39 479.096 148.02C474.649 143.65 472.426 137.67 472.426 130.08C472.426 124.79 473.537 119.883 475.761 115.36C477.984 110.76 481.051 107.118 484.961 104.435C488.947 101.752 493.432 100.41 498.416 100.41C502.862 100.41 506.427 101.752 509.111 104.435C511.794 107.042 513.136 110.607 513.136 115.13C513.136 120.42 511.219 124.982 507.386 128.815C503.629 132.572 497.227 135.562 488.181 137.785C490.097 141.312 493.739 143.075 499.106 143.075C502.556 143.075 506.466 141.887 510.836 139.51C515.282 137.057 519.116 133.875 522.336 129.965C523.256 128.892 524.291 128.355 525.441 128.355ZM496.461 111.68C493.624 111.68 491.209 113.328 489.216 116.625C487.299 119.922 486.341 123.908 486.341 128.585V128.815C490.864 127.742 494.429 126.132 497.036 123.985C499.642 121.838 500.946 119.347 500.946 116.51C500.946 115.053 500.524 113.903 499.681 113.06C498.914 112.14 497.841 111.68 496.461 111.68ZM540.687 157.105C536.7 157.105 533.634 156.185 531.487 154.345C529.417 152.505 528.382 150.435 528.382 148.135C528.382 146.142 529.11 144.417 530.567 142.96C532.024 141.503 534.17 140.775 537.007 140.775C538.004 140.775 539.154 140.89 540.457 141.12C541.837 141.273 542.872 141.388 543.562 141.465C543.485 139.472 543.025 137.593 542.182 135.83C541.415 134.067 540.419 132.38 539.192 130.77C537.965 129.083 536.815 127.627 535.742 126.4C533.365 130.923 530.989 134.68 528.612 137.67C526.312 140.66 523.782 143.497 521.022 146.18C519.642 147.56 518.185 148.25 516.652 148.25C515.425 148.25 514.429 147.828 513.662 146.985C512.895 146.065 512.512 144.953 512.512 143.65C512.512 142.117 513.049 140.698 514.122 139.395L515.617 137.555C519.834 132.342 523.015 128.048 525.162 124.675C526.542 122.452 527.922 119.807 529.302 116.74C530.759 113.673 532.637 109.495 534.937 104.205C536.394 100.832 539.422 99.145 544.022 99.145C546.169 99.145 547.664 99.3367 548.507 99.72C549.35 100.103 549.772 100.717 549.772 101.56C549.772 102.02 549.619 102.748 549.312 103.745C549.005 104.742 548.584 105.738 548.047 106.735C546.667 109.495 545.977 111.833 545.977 113.75C545.977 114.9 546.36 116.165 547.127 117.545C547.97 118.925 549.235 120.65 550.922 122.72C553.375 125.94 555.215 128.7 556.442 131C557.745 133.223 558.397 135.677 558.397 138.36C558.397 141.58 557.63 144.647 556.097 147.56C554.64 150.397 552.57 152.697 549.887 154.46C547.204 156.223 544.137 157.105 540.687 157.105Z" fill="#6B4FA1"/>
<path d="M28.1854 95.0303C28.7528 98.6077 26.5639 99.6108 25.3985 99.6652C29.3941 99.4787 29.9202 96.4509 29.6838 94.9603C26.9321 87.4805 17.9865 91.0013 16.5581 92.5696C13.1551 94.7306 4.07503 114.676 25.4951 123.186C42.6311 129.995 56.1894 115.914 60.8266 108.023L61.8255 107.976L61.3593 97.987L60.3604 98.0336C49.5555 81.0188 34.4486 111.256 24.9123 110.7C15.3761 110.144 16.2835 99.9445 17.244 96.542C18.9621 90.4553 27.4762 90.5585 28.1854 95.0303Z" fill="#222222"/>
<path d="M93.1522 92.2483C92.9146 95.7438 95.1878 96.5088 96.3541 96.4544C92.3554 96.641 91.5537 93.7747 91.6527 92.3183C93.7094 84.8663 102.946 87.4357 104.514 88.8144C108.103 90.5827 118.978 108.949 98.413 119.104C81.9607 127.227 67.1595 114.916 61.8155 107.745L60.8158 107.792L60.3651 98.1339L61.3648 98.0873C70.573 80.7195 88.3976 108.44 97.8496 107.031C107.302 105.622 105.463 95.8881 104.194 92.7009C101.924 86.9995 93.4493 87.8789 93.1522 92.2483Z" fill="#222222"/>
<path d="M33.4929 111.388C46.662 93.2544 57.2437 94.7627 60.4269 98.6185C58.6255 92.1955 49.4489 88.6194 39.4964 100.596C29.5439 112.573 22.5282 112.4 17.7534 106.617C12.9786 100.833 19.4349 89.019 25.5915 92.2355C30.5168 94.8087 27.8768 98.3023 25.9411 99.7274C31.1914 100.684 30.6527 97.0048 29.727 95.0458C22.8864 85.7546 16.5547 91.6562 14.2439 95.7684C6.92851 110.626 19.7875 130.26 33.4929 111.388Z" fill="#E5E5E5"/>
<path d="M60.4269 98.6185L60.0413 98.9368C60.1918 99.119 60.4492 99.1711 60.6586 99.0616C60.868 98.9521 60.9721 98.711 60.9083 98.4835L60.4269 98.6185ZM33.4929 111.388L33.8975 111.682L33.4929 111.388ZM14.2439 95.7684L13.808 95.5234C13.8036 95.5313 13.7993 95.5394 13.7953 95.5475L14.2439 95.7684ZM29.727 95.0458L30.1791 94.8322C30.1653 94.803 30.1488 94.7753 30.1296 94.7494L29.727 95.0458ZM25.9411 99.7274L25.6447 99.3247C25.484 99.4431 25.409 99.6456 25.454 99.84C25.4989 100.034 25.6552 100.184 25.8515 100.219L25.9411 99.7274ZM25.5915 92.2355L25.823 91.7924L25.823 91.7924L25.5915 92.2355ZM60.8125 98.3002C59.0656 96.1841 55.3984 94.8262 50.5609 96.2783C45.7272 97.7293 39.708 101.979 33.0884 111.094L33.8975 111.682C40.4469 102.663 46.3031 98.6005 50.8484 97.2361C55.3898 95.8729 58.6051 97.1971 60.0413 98.9368L60.8125 98.3002ZM33.0884 111.094C29.7003 115.76 26.4243 117.96 23.5801 118.507C20.7623 119.05 18.2667 117.989 16.3553 115.89C12.4979 111.655 11.1134 103.258 14.6925 95.9892L13.7953 95.5475C10.059 103.136 11.4463 111.985 15.616 116.563C17.7181 118.871 20.5498 120.109 23.7691 119.489C26.9619 118.875 30.4328 116.453 33.8975 111.682L33.0884 111.094ZM14.6798 96.0133C15.8069 94.0076 17.883 91.6333 20.4321 90.8592C21.6885 90.4777 23.0712 90.4801 24.5482 91.1195C26.0349 91.7631 27.6488 93.0664 29.3244 95.3422L30.1296 94.7494C28.385 92.3796 26.6422 90.9364 24.9455 90.2018C23.2392 89.4632 21.612 89.4559 20.1415 89.9024C17.2369 90.7844 14.9917 93.4169 13.808 95.5234L14.6798 96.0133ZM29.2749 95.2594C29.4903 95.7151 29.681 96.2675 29.7708 96.8186C29.8614 97.3747 29.8429 97.8896 29.684 98.2988C29.5333 98.6866 29.2457 99.0121 28.7093 99.204C28.1508 99.404 27.2983 99.4663 26.0307 99.2355L25.8515 100.219C27.2091 100.467 28.2581 100.428 29.0463 100.146C29.8566 99.8555 30.3609 99.3181 30.6161 98.6608C30.8631 98.025 30.8645 97.3126 30.7578 96.6578C30.6503 95.9981 30.4266 95.356 30.1791 94.8322L29.2749 95.2594ZM26.2376 100.13C27.246 99.3876 28.5055 98.0638 28.8287 96.514C28.9946 95.7182 28.9111 94.8678 28.4282 94.0395C27.9512 93.2214 27.1078 92.4636 25.823 91.7924L25.36 92.6787C26.5379 93.2941 27.2114 93.9379 27.5642 94.5431C27.9111 95.138 27.9701 95.7326 27.8497 96.3099C27.6002 97.5065 26.5719 98.6421 25.6447 99.3247L26.2376 100.13ZM25.823 91.7924C24.1176 90.9014 22.3838 91.0589 20.8625 91.8712C19.3579 92.6745 18.0607 94.1138 17.1342 95.8115C15.2959 99.1802 14.7981 103.822 17.3678 106.935L18.139 106.298C15.9339 103.627 16.2768 99.4705 18.0121 96.2905C18.8724 94.7139 20.0452 93.4412 21.3335 92.7534C22.6051 92.0744 23.9871 91.9614 25.36 92.6787L25.823 91.7924ZM17.3678 106.935C19.8371 109.926 22.958 111.534 26.7829 110.757C30.5477 109.991 34.8823 106.931 39.8809 100.916L39.1118 100.277C34.158 106.238 30.0085 109.08 26.5836 109.777C23.2189 110.461 20.4445 109.091 18.139 106.298L17.3678 106.935ZM39.8809 100.916C44.8014 94.9945 49.4454 93.0185 52.9918 93.2068C56.5277 93.3945 59.0989 95.7351 59.9455 98.7535L60.9083 98.4835C59.9535 95.0789 57.0357 92.42 53.0448 92.2082C49.0644 91.9969 44.1438 94.2213 39.1118 100.277L39.8809 100.916Z" fill="#373737"/>
<path d="M89.446 109.078C74.6454 92.2494 64.2501 94.7367 61.4398 98.8722C62.6352 92.3093 71.4389 87.8942 82.4636 98.8922C93.4883 109.89 100.457 109.064 104.673 102.861C108.888 96.6579 101.36 85.4967 95.5294 89.2726C90.8651 92.2933 93.819 95.5258 95.879 96.7645C90.7406 98.2056 90.9344 94.4925 91.6736 92.4558C97.6191 82.5679 104.473 87.8541 107.157 91.7333C115.824 105.845 104.85 126.591 89.446 109.078Z" fill="#E5E5E5"/>
<path d="M61.4398 98.8722L61.8534 99.1532C61.7206 99.3487 61.4691 99.4245 61.2504 99.335C61.0318 99.2454 60.9056 99.0151 60.9479 98.7826L61.4398 98.8722ZM89.446 109.078L89.0706 109.408L89.446 109.078ZM107.157 91.7333L107.568 91.4488C107.573 91.4562 107.578 91.4638 107.583 91.4716L107.157 91.7333ZM91.6736 92.4558L91.2036 92.2852C91.2146 92.255 91.2285 92.2258 91.2451 92.1982L91.6736 92.4558ZM95.879 96.7645L96.1367 96.336C96.3077 96.4388 96.4012 96.6335 96.3745 96.8312C96.3479 97.029 96.2062 97.192 96.014 97.2459L95.879 96.7645ZM95.5294 89.2726L95.2576 88.8529L95.2576 88.8529L95.5294 89.2726ZM61.0263 98.5912C62.5686 96.3216 66.0933 94.6281 71.0451 95.6233C75.9928 96.6178 82.3817 100.289 89.8215 108.748L89.0706 109.408C81.7097 101.039 75.5006 97.5388 70.848 96.6037C66.1994 95.6694 63.1214 97.2873 61.8534 99.1532L61.0263 98.5912ZM89.8215 108.748C93.6293 113.077 97.096 114.963 99.9789 115.243C102.835 115.521 105.221 114.232 106.928 111.964C110.375 107.388 110.971 98.899 106.731 91.9949L107.583 91.4716C112.009 98.6788 111.452 107.619 107.727 112.566C105.849 115.059 103.145 116.555 99.8821 116.238C96.6459 115.924 92.9645 113.835 89.0706 109.408L89.8215 108.748ZM106.745 92.0177C105.437 90.1257 103.148 87.9551 100.538 87.4218C99.2517 87.1589 97.8753 87.2901 96.4642 88.0643C95.0439 88.8436 93.5584 90.2914 92.1021 92.7135L91.2451 92.1982C92.7615 89.6763 94.3623 88.0769 95.9832 87.1876C97.6132 86.2932 99.2327 86.1344 100.738 86.442C103.713 87.0497 106.193 89.4617 107.568 91.4488L106.745 92.0177ZM92.1436 92.6264C91.9716 93.1002 91.8331 93.6679 91.7951 94.225C91.7566 94.7871 91.823 95.298 92.0194 95.6907C92.2055 96.0628 92.5222 96.36 93.0741 96.5012C93.6488 96.6482 94.5035 96.631 95.744 96.283L96.014 97.2459C94.6853 97.6185 93.6373 97.6775 92.8263 97.47C91.9924 97.2567 91.4403 96.7685 91.125 96.138C90.8199 95.5279 90.7522 94.8187 90.7974 94.1568C90.843 93.4899 91.0059 92.8298 91.2036 92.2852L92.1436 92.6264ZM95.6213 97.193C94.5481 96.5477 93.1708 95.3469 92.7047 93.834C92.4654 93.0571 92.4694 92.2026 92.873 91.3329C93.2717 90.474 94.0409 89.6409 95.2576 88.8529L95.8012 89.6923C94.6857 90.4147 94.075 91.1185 93.7801 91.7539C93.4902 92.3785 93.4868 92.976 93.6604 93.5396C94.0203 94.7078 95.1499 95.7426 96.1367 96.336L95.6213 97.193ZM95.2576 88.8529C96.8726 87.807 98.6135 87.8024 100.204 88.4695C101.777 89.1292 103.202 90.4413 104.283 92.0454C106.427 95.2283 107.355 99.8037 105.086 103.142L104.259 102.58C106.206 99.7154 105.477 95.6086 103.454 92.604C102.45 91.1144 101.164 89.9565 99.8171 89.3916C98.4878 88.8341 97.1013 88.8503 95.8012 89.6923L95.2576 88.8529ZM105.086 103.142C102.906 106.35 99.9488 108.242 96.0681 107.824C92.2484 107.413 87.6476 104.77 82.1105 99.2462L82.8167 98.5382C88.3043 104.012 92.7004 106.456 96.1752 106.83C99.5891 107.198 102.224 105.575 104.259 102.58L105.086 103.142ZM82.1105 99.2462C76.6599 93.8087 71.852 92.2738 68.3386 92.7915C64.8356 93.3077 62.4935 95.8777 61.9317 98.9618L60.9479 98.7826C61.5815 95.3039 64.239 92.3848 68.1928 91.8022C72.1363 91.2211 77.2426 92.9776 82.8167 98.5382L82.1105 99.2462Z" fill="#373737"/>
<path d="M262.534 23.6455C271.659 20.7187 279.535 28.4519 282.333 32.6843C277.599 32.6843 273.94 43.2296 270.066 42.1535C266.192 41.0775 258.23 43.2296 260.382 55.927C262.103 66.0848 256.365 73.2155 253.28 75.511V71.8525C244.844 80.2887 239.578 79.6717 238 78.3088C250.913 74.0046 247.254 63.7462 243.811 59.1551C240.367 28.8536 257.441 25.0085 266.408 26.8737L262.534 23.6455Z" fill="#111111"/>
<path d="M248.115 58.9399C259.65 42.2396 267.555 40.7905 270.066 42.1535C276.092 41.9383 286.939 39.7862 282.118 32.8995C277.297 26.0128 269.205 24.4346 265.762 24.5064L267.268 27.7345C245.748 28.3801 244.241 48.3946 246.393 44.3056C248.115 41.0345 253.567 39.2123 256.078 38.7102C248.674 44.7361 247.684 54.7074 248.115 58.9399Z" fill="#E5E5E5" stroke="black"/>
<path d="M280.181 33.1147C289.65 30.5322 290.779 36.5751 290.062 39.6597C280.248 41.5536 275.662 45.7404 274.37 47.749C272.132 47.0603 270.102 46.8882 269.851 45.3817C269.349 42.3687 270.712 35.6973 280.181 33.1147Z" fill="#6B4FA1"/>
<path d="M318.488 49.9011C338.46 53.8609 336.733 77.7655 331.711 88.5977C326.761 83.2174 316.336 71.1351 313.969 63.0289C312.419 72.3259 294.672 73.9328 285.992 73.5741C278.416 87.3476 269.923 87.491 266.623 85.8411L265.072 95.8863C263.472 93.8038 262.995 90.6801 262.47 84.4327C260.7 73.7995 261.874 58.8764 273.94 47.3186C290.296 31.6513 310.454 42.5122 318.488 49.9011Z" fill="#111111"/>
<path d="M262.469 74.0204L265.072 64.1287C270.799 50.5927 282.47 40.8981 297.353 40.8981C304.118 40.8981 314.355 46.4935 319.95 51.4434C335.79 55.231 334.872 71.1709 332.648 78.5597L325.976 64.1407C325.187 69.5209 323.652 79.3345 323.824 75.5468C323.996 71.7591 319.018 61.343 316.507 56.6084C312.375 62.4621 306.608 62.2038 299.506 62.2038C293.982 62.5625 282.074 64.9155 278.63 71.4579L274.326 79.6358C270.538 77.0533 272.748 68.6601 274.326 64.7863C269.85 65.3028 263.688 71.1509 262.469 74.0204Z" fill="#E5E5E5" stroke="#111111"/>
</svg>
